<svg width="24" height="24" viewBox="0 0 24 24" fill="none" xmlns="http://www.w3.org/2000/svg">
<path fill-rule="evenodd" clip-rule="evenodd" d="M9 4C7.34315 4 6 5.34315 6 7C6 8.65685 7.34315 10 9 10C10.6569 10 12 8.65685 12 7C12 5.34315 10.6569 4 9 4ZM4 7C4 4.23858 6.23858 2 9 2C11.7614 2 14 4.23858 14 7C14 9.76142 11.7614 12 9 12C6.23858 12 4 9.76142 4 7ZM6 16C4.34315 16 3 17.3431 3 19C3 19.5523 3.44772 20 4 20H14C14.5523 20 15 19.5523 15 19C15 17.3431 13.6569 16 12 16H6ZM1 19C1 16.2386 3.23858 14 6 14H12C14.7614 14 17 16.2386 17 19C17 20.6569 15.6569 22 14 22H4C2.34315 22 1 20.6569 1 19ZM21 7C21 6.44772 20.5523 6 20 6C19.4477 6 19 6.44772 19 7V9H17C16.4477 9 16 9.44772 16 10C16 10.5523 16.4477 11 17 11H19V13C19 13.5523 19.4477 14 20 14C20.5523 14 21 13.5523 21 13V11H23C23.5523 11 24 10.5523 24 10C24 9.44772 23.5523 9 23 9H21V7Z" fill="currentColor"/>
</svg>
