<svg width="24" height="24" viewBox="0 0 24 24" fill="none" xmlns="http://www.w3.org/2000/svg">
<path fill-rule="evenodd" clip-rule="evenodd" d="M17.3275 5.08846C17.7089 4.74175 18.2914 4.74176 18.6728 5.08848C18.686 5.10046 18.7052 5.11932 18.793 5.2071C18.8808 5.29487 18.8996 5.31414 18.9116 5.32732C19.2583 5.70874 19.2583 6.29118 18.9116 6.67259C18.8996 6.68577 18.8808 6.70504 18.793 6.79281L18.0598 7.52596C17.2023 7.49453 16.5055 6.7978 16.474 5.94028L17.2073 5.20708C17.295 5.1193 17.3143 5.10044 17.3275 5.08846ZM14.8735 7.54076L7.27401 15.1402C6.45785 15.9564 6.18684 16.2392 6.00128 16.5669C5.81572 16.8946 5.71267 17.2725 5.43273 18.3922L5.37439 18.6256L5.60778 18.5673C6.72751 18.2873 7.10539 18.1843 7.43312 17.9987C7.76085 17.8132 8.04363 17.5422 8.85977 16.726L16.4593 9.12648C15.7803 8.77679 15.2233 8.21975 14.8735 7.54076ZM20.0181 3.60857C18.8739 2.56841 17.1265 2.56838 15.9822 3.60851C15.9288 3.65708 15.8727 3.71317 15.8074 3.77846L15.793 3.79286L5.8598 13.726L5.77015 13.8156C5.07752 14.5078 4.59681 14.9882 4.26088 15.5815C3.92495 16.1748 3.76034 16.8342 3.52316 17.7842L3.49245 17.9072L3.02988 19.7574C2.94468 20.0982 3.04453 20.4587 3.29291 20.7071C3.54129 20.9555 3.90178 21.0553 4.24256 20.9701L6.09285 20.5075L6.21584 20.4768C7.16586 20.2397 7.82521 20.075 8.41852 19.7391C9.01183 19.4032 9.49221 18.9225 10.1844 18.2299L10.274 18.1402L20.2072 8.20702L20.2216 8.19259C20.2869 8.12735 20.343 8.07129 20.3915 8.01787C21.4316 6.87366 21.4317 5.12631 20.3916 3.98207C20.343 3.92866 20.2869 3.8726 20.2217 3.80736L20.2217 3.80733L20.2072 3.79292L20.1929 3.77857L20.1929 3.77855C20.1276 3.71325 20.0715 3.65714 20.0181 3.60857Z" fill="currentColor"/>
</svg>
