<svg width="24" height="24" viewBox="0 0 24 24" fill="none" xmlns="http://www.w3.org/2000/svg">
<path fill-rule="evenodd" clip-rule="evenodd" d="M10.5 2L10.4419 2C9.31855 1.99998 8.39184 1.99996 7.64821 2.08379C6.87165 2.17134 6.17201 2.36078 5.56496 2.82659C5.28763 3.03939 5.03939 3.28763 4.82659 3.56496C4.36078 4.17201 4.17134 4.87165 4.08379 5.64821C3.99996 6.39184 3.99998 7.31855 4 8.44188L4 8.5V15.5L4 15.5581C3.99998 16.6815 3.99996 17.6082 4.08379 18.3518C4.17134 19.1284 4.36078 19.828 4.82659 20.435C5.03939 20.7124 5.28763 20.9606 5.56496 21.1734C6.17201 21.6392 6.87165 21.8287 7.64821 21.9162C8.39183 22 9.31853 22 10.4418 22H10.4419H10.5H11C11.5523 22 12 21.5523 12 21C12 20.4477 11.5523 20 11 20H10.5C9.30396 20 8.49062 19.9985 7.87227 19.9288C7.27406 19.8614 6.98334 19.7408 6.78248 19.5867C6.64381 19.4803 6.5197 19.3562 6.4133 19.2175C6.25917 19.0167 6.13864 18.7259 6.0712 18.1277C6.00149 17.5094 6 16.696 6 15.5V8.5C6 7.30396 6.00149 6.49062 6.0712 5.87227C6.13864 5.27406 6.25917 4.98334 6.4133 4.78248C6.5197 4.64381 6.64381 4.5197 6.78248 4.4133C6.98334 4.25917 7.27406 4.13864 7.87227 4.0712C8.49062 4.00149 9.30396 4 10.5 4H11C11.5523 4 12 3.55229 12 3C12 2.44772 11.5523 2 11 2H10.5ZM16.7071 7.2929C16.3166 6.90237 15.6834 6.90237 15.2929 7.2929C14.9024 7.68342 14.9024 8.31658 15.2929 8.70711L17.5858 11H11C10.4477 11 10 11.4477 10 12C10 12.5523 10.4477 13 11 13H17.5858L15.2929 15.2929C14.9024 15.6834 14.9024 16.3166 15.2929 16.7071C15.6834 17.0976 16.3166 17.0976 16.7071 16.7071L20.7071 12.7071C21.0976 12.3166 21.0976 11.6834 20.7071 11.2929L16.7071 7.2929Z" fill="currentColor"/>
</svg>
