<svg width="24" height="24" viewBox="0 0 24 24" fill="none" xmlns="http://www.w3.org/2000/svg">
<path fill-rule="evenodd" clip-rule="evenodd" d="M14.5 4C15.696 4 16.5094 4.00149 17.1277 4.0712C17.7259 4.13864 18.0167 4.25917 18.2175 4.4133C18.3562 4.5197 18.4803 4.64381 18.5867 4.78248C18.7408 4.98334 18.8614 5.27406 18.9288 5.87227C18.9985 6.49062 19 7.30396 19 8.5V15.5C19 16.696 18.9985 17.5094 18.9288 18.1277C18.8614 18.7259 18.7408 19.0167 18.5867 19.2175C18.4803 19.3562 18.3562 19.4803 18.2175 19.5867C18.0167 19.7408 17.7259 19.8614 17.1277 19.9288C16.5094 19.9985 15.696 20 14.5 20H14C13.4477 20 13 20.4477 13 21C13 21.5523 13.4477 22 14 22H14.5H14.5581H14.5582C15.6815 22 16.6082 22 17.3518 21.9162C18.1284 21.8287 18.828 21.6392 19.435 21.1734C19.7124 20.9606 19.9606 20.7124 20.1734 20.435C20.6392 19.828 20.8287 19.1284 20.9162 18.3518C21 17.6082 21 16.6815 21 15.5581V15.5V8.5V8.44188C21 7.31855 21 6.39184 20.9162 5.64821C20.8287 4.87165 20.6392 4.17201 20.1734 3.56496C19.9606 3.28763 19.7124 3.03939 19.435 2.82659C18.828 2.36078 18.1284 2.17134 17.3518 2.08379C16.6082 1.99996 15.6815 1.99998 14.5581 2L14.5 2H14C13.4477 2 13 2.44772 13 3C13 3.55229 13.4477 4 14 4H14.5ZM9.70711 7.2929C9.31658 6.90237 8.68342 6.90237 8.29289 7.2929C7.90237 7.68342 7.90237 8.31658 8.29289 8.70711L10.5858 11H4C3.44772 11 3 11.4477 3 12C3 12.5523 3.44772 13 4 13H10.5858L8.29289 15.2929C7.90237 15.6834 7.90237 16.3166 8.29289 16.7071C8.68342 17.0976 9.31658 17.0976 9.70711 16.7071L13.7071 12.7071C14.0976 12.3166 14.0976 11.6834 13.7071 11.2929L9.70711 7.2929Z" fill="currentColor"/>
</svg>
