<svg width="24" height="24" viewBox="0 0 24 24" fill="none" xmlns="http://www.w3.org/2000/svg">
<path fill-rule="evenodd" clip-rule="evenodd" d="M3 12C3 11.7155 3.11853 11.1897 3.46504 10.5244C3.80222 9.87705 4.32529 9.1568 5.05328 8.4848C6.49729 7.15187 8.75642 6 12 6C15.2436 6 17.5027 7.15187 18.9467 8.4848C19.6747 9.1568 20.1978 9.87705 20.535 10.5244C20.8815 11.1897 21 11.7155 21 12C21 12.2845 20.8815 12.8103 20.535 13.4756C20.1978 14.1229 19.6747 14.8432 18.9467 15.5152C17.5027 16.8481 15.2436 18 12 18C8.75642 18 6.49729 16.8481 5.05328 15.5152C4.32529 14.8432 3.80222 14.1229 3.46504 13.4756C3.11853 12.8103 3 12.2845 3 12ZM12 4C8.24358 4 5.50271 5.34813 3.69672 7.0152C2.79971 7.8432 2.13528 8.74795 1.69121 9.60057C1.25647 10.4353 1 11.2845 1 12C1 12.7155 1.25647 13.5647 1.69121 14.3994C2.13528 15.2521 2.79971 16.1568 3.69672 16.9848C5.50271 18.6519 8.24358 20 12 20C15.7564 20 18.4973 18.6519 20.3033 16.9848C21.2003 16.1568 21.8647 15.2521 22.3088 14.3994C22.7435 13.5647 23 12.7155 23 12C23 11.2845 22.7435 10.4353 22.3088 9.60057C21.8647 8.74795 21.2003 7.8432 20.3033 7.0152C18.4973 5.34813 15.7564 4 12 4ZM9.9999 12C9.9999 10.8955 10.8953 10 11.9999 10C13.1045 10 13.9999 10.8955 13.9999 12C13.9999 13.1046 13.1045 14 11.9999 14C10.8953 14 9.9999 13.1046 9.9999 12ZM11.9999 8.00002C9.79076 8.00002 7.9999 9.79089 7.9999 12C7.9999 14.2092 9.79076 16 11.9999 16C14.209 16 15.9999 14.2092 15.9999 12C15.9999 9.79089 14.209 8.00002 11.9999 8.00002Z" fill="currentColor"/>
</svg>
