<svg width="24" height="24" viewBox="0 0 24 24" fill="none" xmlns="http://www.w3.org/2000/svg">
<path fill-rule="evenodd" clip-rule="evenodd" d="M3.70701 2.29292C3.31648 1.9024 2.68332 1.9024 2.2928 2.29292C1.90227 2.68345 1.90227 3.31661 2.2928 3.70714L4.74827 6.16261C3.61728 6.96634 2.75663 7.90639 2.14861 8.82578C1.4201 9.92738 1 11.0848 1 12C1 12.7155 1.25647 13.5647 1.69121 14.3994C2.13528 15.2521 2.79971 16.1568 3.69672 16.9848C5.50271 18.6519 8.24358 20 12 20C14.1393 20 15.9545 19.5627 17.458 18.8723L20.2928 21.7071C20.6833 22.0977 21.3165 22.0977 21.707 21.7071C22.0975 21.3166 22.0975 20.6834 21.707 20.2929L3.70701 2.29292ZM15.9273 17.3416L14.0317 15.4461C13.4362 15.7978 12.741 16 11.9999 16C9.79076 16 7.9999 14.2092 7.9999 12C7.9999 11.2589 8.20215 10.5638 8.55386 9.9682L6.18727 7.60161C5.12361 8.29762 4.34199 9.13487 3.81682 9.929C3.21223 10.8432 3 11.6166 3 12C3 12.2846 3.11853 12.8103 3.46504 13.4756C3.80222 14.123 4.32529 14.8432 5.05328 15.5152C6.49729 16.8481 8.75642 18 12 18C13.5233 18 14.8262 17.746 15.9273 17.3416ZM10.0675 11.4818C10.0234 11.647 9.9999 11.8206 9.9999 12C9.9999 13.1046 10.8953 14 11.9999 14C12.1793 14 12.353 13.9766 12.5181 13.9325L10.0675 11.4818ZM12 6.00001C10.9782 6.00001 10.0572 6.11431 9.23108 6.31051C8.69374 6.43813 8.15468 6.10599 8.02706 5.56865C7.89944 5.03131 8.23159 4.49226 8.76892 4.36464C9.75152 4.13127 10.8279 4.00001 12 4.00001C15.7564 4.00001 18.4973 5.34814 20.3033 7.0152C21.2003 7.84321 21.8647 8.74796 22.3088 9.60057C22.7435 10.4353 23 11.2846 23 12C23 13.2994 22.1507 15.1536 20.5917 16.7081C20.2006 17.0981 19.5674 17.0972 19.1775 16.7061C18.7875 16.315 18.7884 15.6818 19.1795 15.2919C20.51 13.9653 21 12.5905 21 12C21 11.7155 20.8815 11.1897 20.535 10.5244C20.1978 9.87706 19.6747 9.1568 18.9467 8.48481C17.5027 7.15188 15.2436 6.00001 12 6.00001Z" fill="currentColor"/>
</svg>
