<svg width="74" height="74" viewBox="0 0 74 74" fill="none" xmlns="http://www.w3.org/2000/svg">
<path d="M6 37C6 19.8792 19.8792 6 37 6C54.1208 6 68 19.8792 68 37C68 54.1208 54.1208 68 37 68C19.8792 68 6 54.1208 6 37ZM37 0.5C16.8416 0.5 0.5 16.8416 0.5 37C0.5 57.1584 16.8416 73.5 37 73.5C57.1584 73.5 73.5 57.1584 73.5 37C73.5 16.8416 57.1584 0.5 37 0.5Z" fill="#E6E2DA" stroke="#E6E2DA"/>
<path d="M67.9221 34.7849C68.0264 36.2632 69.2224 37.5 70.75 37.5C72.2605 37.5 73.5253 36.2667 73.4299 34.7188C72.2986 16.3772 57.6228 1.70142 39.2812 0.570143C37.7333 0.47467 36.5 1.73947 36.5 3.25C36.5 4.77764 37.7368 5.97355 39.2151 6.0779C54.5702 7.16174 66.8383 19.4298 67.9221 34.7849Z" fill="#050400" stroke="#050400"/>
</svg>
