<svg width="20" height="20" viewBox="0 0 20 20" fill="none" xmlns="http://www.w3.org/2000/svg">
<path fill-rule="evenodd" clip-rule="evenodd" d="M8.39893 5.77548e-06L8.44152 1.14975e-05H11.5585L11.6011 5.77548e-06C11.9118 -5.74054e-05 12.223 -0.000120586 12.4873 0.0300604C12.7893 0.0645371 13.1284 0.146698 13.4487 0.377527C13.7689 0.608356 13.9541 0.90406 14.0823 1.17964C14.1945 1.42088 14.2929 1.71607 14.3911 2.01091L14.4045 2.05133L14.7208 3.00001H17H19C19.5523 3.00001 20 3.44773 20 4.00001C20 4.5523 19.5523 5.00001 19 5.00001H17.9356L17.3712 13.4656L17.3667 13.5332C17.282 14.8031 17.2121 15.8532 17.0469 16.6824C16.8731 17.5546 16.5707 18.3179 15.9261 18.921C15.2815 19.5241 14.4997 19.7751 13.6179 19.8904C12.7795 20.0001 11.7271 20 10.4545 20H10.3867H9.61332H9.54554C8.27285 20 7.22047 20.0001 6.38209 19.8904C5.50033 19.7751 4.71855 19.5241 4.07392 18.921C3.4293 18.3179 3.12686 17.5546 2.95312 16.6824C2.78793 15.8532 2.71795 14.8031 2.63333 13.5333L2.62882 13.4656L2.06445 5.00001H1C0.447715 5.00001 0 4.5523 0 4.00001C0 3.44773 0.447715 3.00001 1 3.00001H3H5.27924L5.59547 2.05133L5.60893 2.01093C5.70714 1.71609 5.80548 1.42089 5.9177 1.17964C6.04591 0.90406 6.23108 0.608356 6.55134 0.377527C6.8716 0.146698 7.21068 0.0645371 7.51266 0.0300604C7.77702 -0.000120586 8.08816 -5.74054e-05 8.39893 5.77548e-06ZM7.38743 3.00001H12.6126L12.5072 2.68378C12.3899 2.33192 12.327 2.14817 12.2689 2.02324L12.2664 2.01784L12.2605 2.01715C12.1236 2.00152 11.9294 2.00001 11.5585 2.00001H8.44152C8.07063 2.00001 7.87643 2.00152 7.73953 2.01715L7.73361 2.01784L7.73109 2.02324C7.67297 2.14817 7.61012 2.33192 7.49284 2.68378L7.38743 3.00001ZM4.06889 5.00001L4.62439 13.3326C4.7147 14.6873 4.77795 15.6058 4.91458 16.2917C5.04559 16.9493 5.21991 17.2543 5.44029 17.4605C5.66067 17.6667 5.9766 17.8203 6.64149 17.9073C7.33492 17.998 8.25566 18 9.61332 18H10.3867C11.7443 18 12.6651 17.998 13.3585 17.9073C14.0234 17.8203 14.3393 17.6667 14.5597 17.4605C14.7801 17.2543 14.9544 16.9493 15.0854 16.2917C15.2221 15.6058 15.2853 14.6873 15.3756 13.3326L15.9311 5.00001H14H6H4.06889ZM8 7.00001C8.55229 7.00001 9 7.44773 9 8.00001V15C9 15.5523 8.55229 16 8 16C7.44772 16 7 15.5523 7 15V8.00001C7 7.44773 7.44772 7.00001 8 7.00001ZM13 8.00001C13 7.44773 12.5523 7.00001 12 7.00001C11.4477 7.00001 11 7.44773 11 8.00001V12C11 12.5523 11.4477 13 12 13C12.5523 13 13 12.5523 13 12V8.00001Z" fill="currentColor"/>
</svg>
